<?xml version="1.0" encoding="UTF-8" standalone="no"?><!-- Generator: Gravit.io --><svg xmlns="http://www.w3.org/2000/svg" xmlns:xlink="http://www.w3.org/1999/xlink" style="isolation:isolate" viewBox="853.5 1030.2 341.333 341.333" width="341.333pt" height="341.333pt"><g><g><g><g><rect x="981.5" y="1158.2" width="85.333" height="85.333" transform="matrix(1,0,0,1,0,0)" fill="rgb(255,255,255)"/><rect x="853.5" y="1030.2" width="85.333" height="85.333" transform="matrix(1,0,0,1,0,0)" fill="rgb(255,255,255)"/><rect x="981.5" y="1286.2" width="85.333" height="85.333" transform="matrix(1,0,0,1,0,0)" fill="rgb(255,255,255)"/><rect x="853.5" y="1158.2" width="85.333" height="85.333" transform="matrix(1,0,0,1,0,0)" fill="rgb(255,255,255)"/><rect x="853.5" y="1286.2" width="85.333" height="85.333" transform="matrix(1,0,0,1,0,0)" fill="rgb(255,255,255)"/><rect x="1109.5" y="1030.2" width="85.333" height="85.333" transform="matrix(1,0,0,1,0,0)" fill="rgb(255,255,255)"/><rect x="981.5" y="1030.2" width="85.333" height="85.333" transform="matrix(1,0,0,1,0,0)" fill="rgb(255,255,255)"/><rect x="1109.5" y="1158.2" width="85.333" height="85.333" transform="matrix(1,0,0,1,0,0)" fill="rgb(255,255,255)"/><rect x="1109.5" y="1286.2" width="85.333" height="85.333" transform="matrix(1,0,0,1,0,0)" fill="rgb(255,255,255)"/></g></g></g></g></svg>