<?xml version="1.0" encoding="UTF-8" standalone="no"?><!-- Generator: Gravit.io --><svg xmlns="http://www.w3.org/2000/svg" xmlns:xlink="http://www.w3.org/1999/xlink" style="isolation:isolate" viewBox="853.5 1030.2 271.673 271.674" width="271.673pt" height="271.674pt"><g><g><g><g><path d=" M 968.439 1030.2 L 863.949 1030.2 C 858.178 1030.2 853.5 1034.878 853.5 1040.649 L 853.5 1145.139 C 853.5 1150.91 858.178 1155.588 863.949 1155.588 L 968.439 1155.588 C 974.21 1155.588 978.888 1150.91 978.888 1145.139 L 978.888 1040.649 C 978.888 1034.878 974.21 1030.2 968.439 1030.2 Z " fill="rgb(255,255,255)"/><path d=" M 1114.724 1030.2 L 1010.234 1030.2 C 1004.463 1030.2 999.785 1034.878 999.785 1040.649 L 999.785 1145.139 C 999.785 1150.91 1004.463 1155.588 1010.234 1155.588 L 1114.724 1155.588 C 1120.495 1155.588 1125.173 1150.91 1125.173 1145.139 L 1125.173 1040.649 C 1125.173 1034.878 1120.495 1030.2 1114.724 1030.2 Z " fill="rgb(255,255,255)"/><path d=" M 968.439 1176.486 L 863.949 1176.486 C 858.178 1176.486 853.5 1181.164 853.5 1186.935 L 853.5 1291.425 C 853.5 1297.196 858.178 1301.874 863.949 1301.874 L 968.439 1301.874 C 974.21 1301.874 978.888 1297.196 978.888 1291.425 L 978.888 1186.935 C 978.888 1181.164 974.21 1176.486 968.439 1176.486 Z " fill="rgb(255,255,255)"/><path d=" M 1114.724 1176.486 L 1010.234 1176.486 C 1004.463 1176.486 999.785 1181.164 999.785 1186.935 L 999.785 1291.425 C 999.785 1297.196 1004.463 1301.874 1010.234 1301.874 L 1114.724 1301.874 C 1120.495 1301.874 1125.173 1297.196 1125.173 1291.425 L 1125.173 1186.935 C 1125.173 1181.164 1120.495 1176.486 1114.724 1176.486 Z " fill="rgb(255,255,255)"/></g></g></g></g></svg>